<svg version="1.1" id="Layer_1" xmlns="http://www.w3.org/2000/svg" xmlns:xlink="http://www.w3.org/1999/xlink" x="0px" y="0px"
	 width="100%" viewBox="0 0 496 496" enable-background="new 0 0 496 496" xml:space="preserve">
<path fill="#000000" opacity="1.000000" stroke="none" 
	d="
M238.650391,243.464661 
	C240.817230,248.711746 242.264526,253.852692 245.625153,259.503845 
	C248.679169,251.672897 251.434616,244.681824 254.135208,237.669647 
	C264.665527,210.327377 275.261902,183.009918 285.606842,155.597610 
	C287.140411,151.533997 289.153625,149.845215 293.562500,149.932007 
	C305.721619,150.171356 317.891235,150.137390 330.051392,149.918930 
	C334.129822,149.845688 335.781647,151.532715 336.107452,155.325729 
	C337.473022,171.223312 338.870514,187.118240 340.300446,203.010178 
	C341.878967,220.553070 343.545807,238.088089 345.099945,255.633102 
	C346.566162,272.185822 347.927155,288.747864 349.351318,305.304321 
	C350.334198,316.730835 351.356628,328.153931 352.329559,339.581268 
	C352.440125,340.879974 352.344543,342.196228 352.344543,343.244049 
	C351.029175,344.651733 349.622528,344.352325 348.333252,344.355103 
	C336.502563,344.380615 324.671143,344.300598 312.841492,344.414612 
	C309.494232,344.446838 307.798157,343.748688 307.509399,339.825989 
	C306.034302,319.784912 304.233673,299.767853 302.433746,278.398895 
	C296.744995,290.706665 294.482300,303.029755 289.432251,314.198212 
	C288.603485,313.936523 287.774719,313.674835 286.945923,313.413147 
	C287.446259,304.682465 292.233032,296.933167 294.130066,287.169159 
	C289.675476,294.186310 284.686951,299.344818 280.189606,304.920837 
	C278.739319,306.718994 277.028076,308.348938 275.243317,309.822083 
	C273.739502,311.063354 272.103516,311.403625 271.363556,307.543915 
	C267.573029,318.375366 263.964417,327.996216 260.893616,337.785736 
	C259.577515,341.981445 257.608521,343.733185 253.134338,343.442047 
	C247.492340,343.074890 241.804123,343.194489 236.145706,343.389862 
	C232.928146,343.500916 231.339874,342.215546 230.358032,339.224121 
	C228.550507,333.716919 226.413193,328.317993 224.269104,322.481384 
	C218.560806,325.130829 219.453949,333.375244 213.296204,335.124725 
	C211.297424,332.519958 213.429245,330.579315 213.207642,328.051910 
	C208.731247,331.694183 205.292572,336.169312 200.630859,339.176361 
	C198.595398,340.489349 196.421234,342.828461 193.949829,340.906311 
	C191.694519,339.152313 192.481628,336.281342 193.341736,333.924042 
	C194.440247,330.913269 195.233810,327.534973 199.154739,326.187805 
	C201.199219,330.672089 195.746368,333.047791 196.680313,336.884003 
	C205.456482,335.131989 220.030884,317.833557 219.257675,309.928955 
	C215.225449,310.359100 214.205734,315.665710 209.534286,315.915039 
	C209.873764,312.087158 213.025528,311.015961 215.106903,309.263763 
	C217.530487,307.223450 218.602951,305.275299 217.433533,301.978729 
	C209.475479,279.544739 201.674759,257.054962 193.813721,234.586533 
	C193.599091,233.973053 193.277054,233.397156 191.991287,232.710999 
	C191.442978,237.613647 190.770889,242.506165 190.367950,247.420731 
	C188.696716,267.804047 187.082825,288.192169 185.497162,308.582367 
	C184.710785,318.694305 183.871597,328.806885 183.382767,338.934906 
	C183.190735,342.913025 181.927826,344.528717 177.749756,344.451263 
	C166.089691,344.235107 154.421631,344.280762 142.759537,344.434753 
	C138.797470,344.487061 137.543228,343.161316 137.948944,339.121887 
	C139.692535,321.762054 141.132416,304.371948 142.744858,286.998627 
	C144.633987,266.644226 146.657104,246.302109 148.491226,225.942856 
	C149.997498,209.222916 151.294769,192.484222 152.720123,175.756866 
	C153.340958,168.471115 154.115341,161.197983 154.683563,153.908478 
	C154.876389,151.434784 156.051392,150.175217 158.405212,150.163239 
	C172.233688,150.092789 186.062500,150.088226 199.891174,150.053680 
	C203.214798,150.045380 203.777420,152.716141 204.658600,155.005081 
	C214.884750,181.568741 225.088898,208.140900 235.296448,234.711731 
	C236.370819,237.508392 237.429489,240.311096 238.650391,243.464661 
M300.692169,255.575638 
	C299.797485,248.734528 300.515442,241.637527 298.287537,235.007980 
	C297.763275,234.965439 297.238983,234.922913 296.714722,234.880371 
	C289.400543,255.805389 282.086395,276.730408 274.772247,297.655426 
	C279.142181,294.366516 281.787750,288.880859 288.394012,289.650116 
	C288.901550,289.709229 289.622528,288.616577 290.121918,287.965393 
	C303.388245,270.666992 302.616364,278.356934 300.730347,257.009949 
	C300.715698,256.844330 300.718170,256.677246 300.692169,255.575638 
M275.983643,304.635681 
	C278.647552,301.433197 282.514679,299.101624 283.908875,293.903290 
	C279.135803,296.506958 277.463318,300.408539 275.983643,304.635681 
z"/>
</svg>